<svg width="22" height="22" viewBox="0 0 22 22" fill="none" xmlns="http://www.w3.org/2000/svg">
<path fill-rule="evenodd" clip-rule="evenodd" d="M10.8238 1.95078C13.7156 1.95078 14.0551 1.96367 15.198 2.01523C16.2551 2.0625 16.8266 2.23867 17.209 2.38906C17.716 2.58672 18.077 2.81875 18.4551 3.19688C18.8332 3.575 19.0695 3.93594 19.2629 4.44297C19.409 4.82539 19.5895 5.39687 19.6367 6.45391C19.6883 7.59687 19.7012 7.93633 19.7012 10.8281C19.7012 13.7199 19.6883 14.0594 19.6367 15.2023C19.5895 16.2594 19.4133 16.8309 19.2629 17.2133C19.0652 17.7203 18.8332 18.0813 18.4551 18.4594C18.077 18.8375 17.716 19.0738 17.209 19.2672C16.8266 19.4133 16.2551 19.5938 15.198 19.641C14.0551 19.6926 13.7156 19.7055 10.8238 19.7055C7.93203 19.7055 7.59258 19.6926 6.44961 19.641C5.39258 19.5938 4.82109 19.4176 4.43867 19.2672C3.93164 19.0695 3.5707 18.8375 3.19258 18.4594C2.81445 18.0813 2.57812 17.7203 2.38477 17.2133C2.23867 16.8309 2.0582 16.2594 2.01094 15.2023C1.95938 14.0594 1.94648 13.7199 1.94648 10.8281C1.94648 7.93633 1.95938 7.59687 2.01094 6.45391C2.0582 5.39687 2.23438 4.82539 2.38477 4.44297C2.58242 3.93594 2.81445 3.575 3.19258 3.19688C3.5707 2.81875 3.93164 2.58242 4.43867 2.38906C4.82109 2.24297 5.39258 2.0625 6.44961 2.01523C7.59258 1.95938 7.93203 1.95078 10.8238 1.95078ZM10.8238 0C7.88477 0 7.51523 0.0128906 6.35938 0.0644531C5.20781 0.116016 4.42148 0.300781 3.73398 0.567187C3.0207 0.842187 2.41914 1.21602 1.81758 1.81758C1.21602 2.41914 0.846484 3.025 0.567187 3.73398C0.300781 4.42148 0.116016 5.20781 0.0644531 6.36367C0.0128906 7.51523 0 7.88477 0 10.8238C0 13.7629 0.0128906 14.1324 0.0644531 15.2883C0.116016 16.4398 0.300781 17.2262 0.567187 17.918C0.842187 18.6313 1.21602 19.2328 1.81758 19.8344C2.41914 20.4359 3.025 20.8055 3.73398 21.0848C4.42148 21.3512 5.20781 21.5359 6.36367 21.5875C7.51953 21.6391 7.88477 21.652 10.8281 21.652C13.7715 21.652 14.1367 21.6391 15.2926 21.5875C16.4441 21.5359 17.2305 21.3512 17.9223 21.0848C18.6355 20.8098 19.2371 20.4359 19.8387 19.8344C20.4402 19.2328 20.8098 18.627 21.0891 17.918C21.3555 17.2305 21.5402 16.4441 21.5918 15.2883C21.6434 14.1324 21.6562 13.7672 21.6562 10.8238C21.6562 7.88047 21.6434 7.51523 21.5918 6.35938C21.5402 5.20781 21.3555 4.42148 21.0891 3.72969C20.8141 3.01641 20.4402 2.41484 19.8387 1.81328C19.2371 1.21172 18.6313 0.842188 17.9223 0.562891C17.2348 0.296484 16.4484 0.111719 15.2926 0.0601563C14.1324 0.0128906 13.7629 0 10.8238 0ZM10.8238 5.26367C7.75586 5.26367 5.26367 7.75156 5.26367 10.8238C5.26367 13.8961 7.75586 16.384 10.8238 16.384C13.8918 16.384 16.384 13.8918 16.384 10.8238C16.384 7.75586 13.8918 5.26367 10.8238 5.26367ZM10.8238 14.4332C8.83008 14.4332 7.21445 12.8176 7.21445 10.8238C7.21445 8.83008 8.83008 7.21445 10.8238 7.21445C12.8176 7.21445 14.4332 8.83008 14.4332 10.8238C14.4332 12.8176 12.8176 14.4332 10.8238 14.4332ZM17.9005 5.04454C17.9005 5.76122 17.3195 6.3422 16.6028 6.3422C15.8862 6.3422 15.3052 5.76122 15.3052 5.04454C15.3052 4.32787 15.8862 3.74689 16.6028 3.74689C17.3195 3.74689 17.9005 4.32787 17.9005 5.04454Z" fill="#D4D7E6"/>
</svg>
